<mxfile host="app.diagrams.net" modified="2024-07-19T11:13:35.212Z" agent="Mozilla/5.0 (Windows NT 10.0; Win64; x64) AppleWebKit/537.36 (KHTML, like Gecko) Chrome/126.0.0.0 Safari/537.36" etag="lvqwmMvFQszJvwYU-wc9" border="50" scale="3" compressed="false" locked="false" version="24.7.1" type="github">
  <diagram name="Blank" id="YmL12bMKpDGza6XwsDPr">
    <mxGraphModel dx="1101" dy="824" grid="0" gridSize="10" guides="1" tooltips="1" connect="1" arrows="1" fold="1" page="0" pageScale="1" pageWidth="827" pageHeight="1169" background="none" math="1" shadow="0">
      <root>
        <mxCell id="X5NqExCQtvZxIxQ7pmgY-0" />
        <mxCell id="1" parent="X5NqExCQtvZxIxQ7pmgY-0" />
        <mxCell id="dohqmcMWc8sms09kIWmR-1" value="Mindmap" style="swimlane;startSize=20;horizontal=1;containerType=tree;" vertex="1" parent="1">
          <mxGeometry x="54" y="64" width="924" height="559" as="geometry">
            <mxRectangle x="241" y="273" width="84" height="26" as="alternateBounds" />
          </mxGeometry>
        </mxCell>
        <mxCell id="dohqmcMWc8sms09kIWmR-2" value="" style="edgeStyle=entityRelationEdgeStyle;startArrow=none;endArrow=none;segment=10;curved=1;sourcePerimeterSpacing=0;targetPerimeterSpacing=0;rounded=0;" edge="1" parent="dohqmcMWc8sms09kIWmR-1" source="dohqmcMWc8sms09kIWmR-6" target="dohqmcMWc8sms09kIWmR-7">
          <mxGeometry relative="1" as="geometry" />
        </mxCell>
        <mxCell id="dohqmcMWc8sms09kIWmR-4" value="" style="edgeStyle=entityRelationEdgeStyle;startArrow=none;endArrow=none;segment=10;curved=1;sourcePerimeterSpacing=0;targetPerimeterSpacing=0;rounded=0;" edge="1" parent="dohqmcMWc8sms09kIWmR-1" source="dohqmcMWc8sms09kIWmR-6" target="dohqmcMWc8sms09kIWmR-9">
          <mxGeometry relative="1" as="geometry" />
        </mxCell>
        <mxCell id="dohqmcMWc8sms09kIWmR-6" value="DynamoDB" style="ellipse;whiteSpace=wrap;html=1;align=center;treeFolding=1;treeMoving=1;newEdgeStyle={&quot;edgeStyle&quot;:&quot;entityRelationEdgeStyle&quot;,&quot;startArrow&quot;:&quot;none&quot;,&quot;endArrow&quot;:&quot;none&quot;,&quot;segment&quot;:10,&quot;curved&quot;:1,&quot;sourcePerimeterSpacing&quot;:0,&quot;targetPerimeterSpacing&quot;:0};" vertex="1" parent="dohqmcMWc8sms09kIWmR-1">
          <mxGeometry x="372" y="37" width="100" height="40" as="geometry" />
        </mxCell>
        <mxCell id="dohqmcMWc8sms09kIWmR-7" value="dynamoose" style="whiteSpace=wrap;html=1;rounded=1;arcSize=50;align=center;verticalAlign=middle;strokeWidth=1;autosize=1;spacing=4;treeFolding=1;treeMoving=1;newEdgeStyle={&quot;edgeStyle&quot;:&quot;entityRelationEdgeStyle&quot;,&quot;startArrow&quot;:&quot;none&quot;,&quot;endArrow&quot;:&quot;none&quot;,&quot;segment&quot;:10,&quot;curved&quot;:1,&quot;sourcePerimeterSpacing&quot;:0,&quot;targetPerimeterSpacing&quot;:0};" vertex="1" parent="dohqmcMWc8sms09kIWmR-1">
          <mxGeometry x="739" y="115" width="101" height="30" as="geometry" />
        </mxCell>
        <mxCell id="dohqmcMWc8sms09kIWmR-9" value="@aws-sdk/client-dynamodb" style="whiteSpace=wrap;html=1;rounded=1;arcSize=50;align=center;verticalAlign=middle;strokeWidth=1;autosize=1;spacing=4;treeFolding=1;treeMoving=1;newEdgeStyle={&quot;edgeStyle&quot;:&quot;entityRelationEdgeStyle&quot;,&quot;startArrow&quot;:&quot;none&quot;,&quot;endArrow&quot;:&quot;none&quot;,&quot;segment&quot;:10,&quot;curved&quot;:1,&quot;sourcePerimeterSpacing&quot;:0,&quot;targetPerimeterSpacing&quot;:0};" vertex="1" parent="dohqmcMWc8sms09kIWmR-1">
          <mxGeometry x="16" y="85" width="208" height="30" as="geometry" />
        </mxCell>
        <mxCell id="dohqmcMWc8sms09kIWmR-16" value="nestjs-dynamoose" style="whiteSpace=wrap;html=1;rounded=1;arcSize=50;align=center;verticalAlign=middle;strokeWidth=1;autosize=1;spacing=4;treeFolding=1;treeMoving=1;newEdgeStyle={&quot;edgeStyle&quot;:&quot;entityRelationEdgeStyle&quot;,&quot;startArrow&quot;:&quot;none&quot;,&quot;endArrow&quot;:&quot;none&quot;,&quot;segment&quot;:10,&quot;curved&quot;:1,&quot;sourcePerimeterSpacing&quot;:0,&quot;targetPerimeterSpacing&quot;:0};" vertex="1" parent="dohqmcMWc8sms09kIWmR-1">
          <mxGeometry x="472" y="186" width="136" height="30" as="geometry" />
        </mxCell>
        <mxCell id="dohqmcMWc8sms09kIWmR-17" value="" style="edgeStyle=entityRelationEdgeStyle;startArrow=none;endArrow=none;segment=10;curved=1;sourcePerimeterSpacing=0;targetPerimeterSpacing=0;rounded=0;exitX=0.5;exitY=1;exitDx=0;exitDy=0;" edge="1" parent="dohqmcMWc8sms09kIWmR-1" source="dohqmcMWc8sms09kIWmR-6" target="dohqmcMWc8sms09kIWmR-16">
          <mxGeometry relative="1" as="geometry">
            <mxPoint x="372" y="57" as="sourcePoint" />
            <mxPoint x="110" y="127" as="targetPoint" />
          </mxGeometry>
        </mxCell>
        <mxCell id="dohqmcMWc8sms09kIWmR-20" value="&lt;a href=&quot;https://socket.dev/npm/package/@aws-sdk/client-dynamodb&quot;&gt;Socket.dev&lt;/a&gt;" style="whiteSpace=wrap;html=1;shape=partialRectangle;top=0;left=0;bottom=1;right=0;points=[[0,1],[1,1]];fillColor=none;align=center;verticalAlign=bottom;routingCenterY=0.5;snapToPoint=1;recursiveResize=0;autosize=1;treeFolding=1;treeMoving=1;newEdgeStyle={&quot;edgeStyle&quot;:&quot;entityRelationEdgeStyle&quot;,&quot;startArrow&quot;:&quot;none&quot;,&quot;endArrow&quot;:&quot;none&quot;,&quot;segment&quot;:10,&quot;curved&quot;:1,&quot;sourcePerimeterSpacing&quot;:0,&quot;targetPerimeterSpacing&quot;:0};" vertex="1" collapsed="1" parent="dohqmcMWc8sms09kIWmR-1">
          <mxGeometry x="107" y="173" width="94" height="26" as="geometry" />
        </mxCell>
        <mxCell id="dohqmcMWc8sms09kIWmR-21" value="" style="edgeStyle=entityRelationEdgeStyle;startArrow=none;endArrow=none;segment=10;curved=1;sourcePerimeterSpacing=0;targetPerimeterSpacing=0;rounded=0;exitX=0.25;exitY=1;exitDx=0;exitDy=0;" edge="1" target="dohqmcMWc8sms09kIWmR-20" parent="dohqmcMWc8sms09kIWmR-1" source="dohqmcMWc8sms09kIWmR-9">
          <mxGeometry relative="1" as="geometry">
            <mxPoint x="277" y="266" as="sourcePoint" />
          </mxGeometry>
        </mxCell>
        <mxCell id="dohqmcMWc8sms09kIWmR-22" value="&lt;a href=&quot;https://socket.dev/npm/package/nestjs-dynamoose&quot;&gt;Socket.dev&lt;/a&gt;" style="whiteSpace=wrap;html=1;shape=partialRectangle;top=0;left=0;bottom=1;right=0;points=[[0,1],[1,1]];fillColor=none;align=center;verticalAlign=bottom;routingCenterY=0.5;snapToPoint=1;recursiveResize=0;autosize=1;treeFolding=1;treeMoving=1;newEdgeStyle={&quot;edgeStyle&quot;:&quot;entityRelationEdgeStyle&quot;,&quot;startArrow&quot;:&quot;none&quot;,&quot;endArrow&quot;:&quot;none&quot;,&quot;segment&quot;:10,&quot;curved&quot;:1,&quot;sourcePerimeterSpacing&quot;:0,&quot;targetPerimeterSpacing&quot;:0};" vertex="1" collapsed="1" parent="dohqmcMWc8sms09kIWmR-1">
          <mxGeometry x="528" y="259" width="94" height="26" as="geometry" />
        </mxCell>
        <mxCell id="dohqmcMWc8sms09kIWmR-23" value="" style="edgeStyle=entityRelationEdgeStyle;startArrow=none;endArrow=none;segment=10;curved=1;sourcePerimeterSpacing=0;targetPerimeterSpacing=0;rounded=0;exitX=0.25;exitY=1;exitDx=0;exitDy=0;" edge="1" parent="dohqmcMWc8sms09kIWmR-1" source="dohqmcMWc8sms09kIWmR-16" target="dohqmcMWc8sms09kIWmR-22">
          <mxGeometry relative="1" as="geometry">
            <mxPoint x="68" y="115" as="sourcePoint" />
            <mxPoint x="107" y="199" as="targetPoint" />
          </mxGeometry>
        </mxCell>
        <mxCell id="dohqmcMWc8sms09kIWmR-24" value="&lt;a href=&quot;https://socket.dev/npm/package/dynamoose&quot;&gt;Socket.dev&lt;/a&gt;" style="whiteSpace=wrap;html=1;shape=partialRectangle;top=0;left=0;bottom=1;right=0;points=[[0,1],[1,1]];fillColor=none;align=center;verticalAlign=bottom;routingCenterY=0.5;snapToPoint=1;recursiveResize=0;autosize=1;treeFolding=1;treeMoving=1;newEdgeStyle={&quot;edgeStyle&quot;:&quot;entityRelationEdgeStyle&quot;,&quot;startArrow&quot;:&quot;none&quot;,&quot;endArrow&quot;:&quot;none&quot;,&quot;segment&quot;:10,&quot;curved&quot;:1,&quot;sourcePerimeterSpacing&quot;:0,&quot;targetPerimeterSpacing&quot;:0};" vertex="1" collapsed="1" parent="dohqmcMWc8sms09kIWmR-1">
          <mxGeometry x="804" y="184" width="94" height="26" as="geometry" />
        </mxCell>
        <mxCell id="dohqmcMWc8sms09kIWmR-25" value="" style="edgeStyle=entityRelationEdgeStyle;startArrow=none;endArrow=none;segment=10;curved=1;sourcePerimeterSpacing=0;targetPerimeterSpacing=0;rounded=0;exitX=0.25;exitY=1;exitDx=0;exitDy=0;" edge="1" parent="dohqmcMWc8sms09kIWmR-1" source="dohqmcMWc8sms09kIWmR-7" target="dohqmcMWc8sms09kIWmR-24">
          <mxGeometry relative="1" as="geometry">
            <mxPoint x="506" y="216" as="sourcePoint" />
            <mxPoint x="511" y="288" as="targetPoint" />
          </mxGeometry>
        </mxCell>
      </root>
    </mxGraphModel>
  </diagram>
</mxfile>
